<svg xmlns="http://www.w3.org/2000/svg" id="svg8" width="16" height="16" version="1.1">
 <path style="fill:#666666" d="M 1.8144531 0 C 1.457028 0 1.2041798 0.23612093 1.0996094 0.43945312 C 0.99503894 0.64361864 1 1.0332031 1 1.0332031 C 1 1.0332031 0.66116967 1.0272433 0.45117188 1.1289062 C 0.17711488 1.2797858 0.006121 1.5610465 0 1.8671875 L 0 2.7011719 L 0 5 L 0 8.75 C 0 8.75 -0.00879865 9.0432315 0.15234375 9.3515625 C 0.31005605 9.6590615 0.7134477 10 1.2851562 10 L 3 10 L 3 8.7011719 L 3 7.8574219 L 3 7.8476562 C 3.0133169 7.181613 3.388688 6.5713006 3.96875 6.2519531 L 3.9921875 6.2402344 L 4.015625 6.2285156 C 4.0980558 6.1886076 4.0780497 6.2278079 4.1523438 6.2011719 C 4.1786668 6.1203597 4.1578494 6.084209 4.2089844 5.984375 L 4.2089844 5.9824219 L 4.2109375 5.9824219 C 4.4713478 5.4760664 5.0166171 5 5.8144531 5 L 9.1113281 5 C 9.1113281 5 9.5406383 4.9804868 9.984375 5.1953125 L 10.009766 5.2070312 L 10.033203 5.2207031 C 10.422193 5.4359491 10.586917 5.7268288 10.720703 6 L 12 6 L 12 5 L 12 2.7011719 L 12 1.8671875 C 11.878063 1.2204863 11.594909 1 11.142578 1 L 6 1 C 5.9942249 0.6941942 5.8222404 0.24699483 5.5488281 0.095703125 C 5.3388301 -0.005962975 5.1425781 5.5511151e-17 5.1425781 0 L 1.8144531 0 z M 2 1 L 5 1 L 5 2 L 11 2 L 11 3 L 1 3 L 1 2 L 2 2 L 2 1 z M 5.8144531 6 C 5.457028 6 5.2041798 6.2361209 5.0996094 6.4394531 C 4.995039 6.6436186 5 7.0332031 5 7.0332031 C 5 7.0332031 4.6611697 7.0272382 4.4511719 7.1289062 C 4.1771149 7.2797856 4.006121 7.5610465 4 7.8671875 L 4 8.7011719 L 4 11 L 4 14.75 C 4 14.75 3.9912014 15.043231 4.1523438 15.351562 C 4.3100561 15.659061 4.7134476 16 5.2851562 16 L 14.714844 16 C 15.286552 16 15.689943 15.659062 15.847656 15.351562 C 16.006225 15.04323 16 14.75 16 14.75 L 16 11 L 16 8.7011719 L 16 7.8671875 C 15.878063 7.2204863 15.594909 7 15.142578 7 L 10 7 C 9.9942249 6.6941942 9.8222404 6.2469948 9.5488281 6.0957031 C 9.3388301 5.994037 9.1425781 6 9.1425781 6 L 5.8144531 6 z M 6 7 L 9 7 L 9 8 L 15 8 L 15 9 L 5 9 L 5 8 L 6 8 L 6 7 z"/>
</svg>
